{"title":"The Little Krishna - the darling of vrindavan  DVD Upscaled Hind","uid":6489462,"size":1191479889,"categoryP":"video","categoryS":"hd___movies","magnet":"?xt=urn:btih:71db1adeec6df1b805e66e3784cf063463a200fb&amp;dn=The+Little+Krishna+-+the+darling+of+vrindavan++DVD+Upscaled+Hind&amp;tr=udp%3A%2F%2Ftracker.openbittorrent.com%3A80&amp;tr=udp%3A%2F%2Fopen.demonii.com%3A1337&amp;tr=udp%3A%2F%2Ftracker.coppersurfer.tk%3A6969&amp;tr=udp%3A%2F%2Fexodus.desync.com%3A6969","seeders":1,"leechers":0,"uploader":"djvikas","files":-1,"time":1308826273,"description":" &lt;a href=&quot;\nhttp://img534.imageshack.us/img534/6677/34littlekrishna.jpg&quot; rel=&quot;nofollow&quot; target=&quot;_NEW&quot;&gt;\nhttp://img534.imageshack.us/img534/6677/34littlekrishna.jpg&lt;/a&gt; &lt;a href=&quot;\nhttp://img228.imageshack.us/img228/8703/66hdrr.jpg&quot; rel=&quot;nofollow&quot; target=&quot;_NEW&quot;&gt;\nhttp://img228.imageshack.us/img228/8703/66hdrr.jpg&lt;/a&gt;\n\n[b]Complete name                    : The Little Krishna - the darling of vrindavan  DVD Upscaled Hindi Dubbed_DjVikas\nFormat                           : Matroska\nFile size                        : 1.11 GiB\nDuration                         : 1h 7mn\nOverall bit rate                 : 2 360 Kbps\nMovie name                       : The Little Krishna - the darling of vrindavan  DVD Upscaled Hindi Dubbed_DjVikas\nEncoded date                     : UTC 2011-06-23 07:57:28\n\nVideo\nID                               : 1\nFormat                           : AVC\nFormat/Info                      : Advanced Video Codec\nFormat profile                   : &lt;a class=&quot;__cf_email__&quot; href=&quot;/cdn-cgi/l/email-protection&quot; data-cfemail=&quot;2e6c4f5d4b4247404b6e621d001e&quot;&gt;[email&amp;#160;protected]&lt;/a&gt;&lt;script cf-hash='f9e31' type=&quot;text/javascript&quot;&gt;\n/* &lt;![CDATA[ */!function(){try{var t=&quot;currentScript&quot;in document?document.currentScript:function(){for(var t=document.getElementsByTagName(&quot;script&quot;),e=t.length;e--;)if(t[e].getAttribute(&quot;cf-hash&quot;))return t[e]}();if(t&amp;&amp;t.previousSibling){var e,r,n,i,c=t.previousSibling,a=c.getAttribute(&quot;data-cfemail&quot;);if(a){for(e=&quot;&quot;,r=parseInt(a.substr(0,2),16),n=2;a.length-n;n+=2)i=parseInt(a.substr(n,2),16)^r,e+=String.fromCharCode(i);e=document.createTextNode(e),c.parentNode.replaceChild(e,c)}}}catch(u){}}();/* ]]&gt; */&lt;/script&gt;\nFormat settings, CABAC           : No\nFormat settings, ReFrames        : 1 frame\nFormat settings, GOP             : M=1, N=25\nMuxing mode                      : Header stripping\nCodec ID                         : V_MPEG4/ISO/AVC\nDuration                         : 1h 7mn\nBit rate                         : 2 057 Kbps\nWidth                            : 1 280 pixels\nHeight                           : 720 pixels\nDisplay aspect ratio             : 16:9\nFrame rate                       : 23.976 fps\nOriginal frame rate              : 23.000 fps\nColor space                      : YUV\nChroma subsampling               : 4:2:0\nBit depth                        : 8 bits\nScan type                        : Progressive\nBits/(Pixel*Frame)               : 0.093\nStream size                      : 990 MiB (87%)\nTitle                            : The Little Krishna DVD Upscaled Hindi Dubbed DjVikas\n\nAudio\nID                               : 2\nFormat                           : AC-3\nFormat/Info                      : Audio Coding 3\nMode extension                   : CM (complete main)\nMuxing mode                      : Header stripping\nCodec ID                         : A_AC3\nDuration                         : 1h 7mn\nBit rate mode                    : Constant\nBit rate                         : 256 Kbps\nChannel(s)                       : 6 channels\nChannel positions                : Front: L C R, Side: L R, LFE\nSampling rate                    : 44.1 KHz\nBit depth                        : 16 bits\nCompression mode                 : Lossy\nDelay relative to video          : 31ms\nStream size                      : 123 MiB (11%)\nTitle                            : hindi_DjVikas\nLanguage                         : Hindi[/b]\n\n\n.........................................................................................................................\n &lt;a href=&quot;\nhttp://img35.imageshack.us/img35/9688/14krishnamkvsnapshot000.jpg&quot; rel=&quot;nofollow&quot; target=&quot;_NEW&quot;&gt;\nhttp://img35.imageshack.us/img35/9688/14krishnamkvsnapshot000.jpg&lt;/a&gt;\n &lt;a href=&quot;\nhttp://img99.imageshack.us/img99/5246/27krishnamkvsnapshot000.jpg&quot; rel=&quot;nofollow&quot; target=&quot;_NEW&quot;&gt;\nhttp://img99.imageshack.us/img99/5246/27krishnamkvsnapshot000.jpg&lt;/a&gt;\n &lt;a href=&quot;\nhttp://img827.imageshack.us/img827/6946/19krishnamkvsnapshot001.jpg&quot; rel=&quot;nofollow&quot; target=&quot;_NEW&quot;&gt;\nhttp://img827.imageshack.us/img827/6946/19krishnamkvsnapshot001.jpg&lt;/a&gt;\n &lt;a href=&quot;\nhttp://img31.imageshack.us/img31/8301/68krishnamkvsnapshot001.jpg&quot; rel=&quot;nofollow&quot; target=&quot;_NEW&quot;&gt;\nhttp://img31.imageshack.us/img31/8301/68krishnamkvsnapshot001.jpg&lt;/a&gt;\n &lt;a href=&quot;\nhttp://img84.imageshack.us/img84/1636/29krishnamkvsnapshot001.jpg&quot; rel=&quot;nofollow&quot; target=&quot;_NEW&quot;&gt;\nhttp://img84.imageshack.us/img84/1636/29krishnamkvsnapshot001.jpg&lt;/a&gt;\n &lt;a href=&quot;\nhttp://img600.imageshack.us/img600/8301/68krishnamkvsnapshot001.jpg&quot; rel=&quot;nofollow&quot; target=&quot;_NEW&quot;&gt;\nhttp://img600.imageshack.us/img600/8301/68krishnamkvsnapshot001.jpg&lt;/a&gt;\n &lt;a href=&quot;\nhttp://img28.imageshack.us/img28/6896/82krishnamkvsnapshot001.jpg&quot; rel=&quot;nofollow&quot; target=&quot;_NEW&quot;&gt;\nhttp://img28.imageshack.us/img28/6896/82krishnamkvsnapshot001.jpg&lt;/a&gt;\n &lt;a href=&quot;\nhttp://img151.imageshack.us/img151/4088/66krishnamkvsnapshot002.jpg&quot; rel=&quot;nofollow&quot; target=&quot;_NEW&quot;&gt;\nhttp://img151.imageshack.us/img151/4088/66krishnamkvsnapshot002.jpg&lt;/a&gt;\n &lt;a href=&quot;\nhttp://img3.imageshack.us/img3/5049/22krishnamkvsnapshot004.jpg&quot; rel=&quot;nofollow&quot; target=&quot;_NEW&quot;&gt;\nhttp://img3.imageshack.us/img3/5049/22krishnamkvsnapshot004.jpg&lt;/a&gt; &lt;a href=&quot;\nhttp://img52.imageshack.us/img52/9574/68krishnamkvsnapshot004.jpg&quot; rel=&quot;nofollow&quot; target=&quot;_NEW&quot;&gt;\nhttp://img52.imageshack.us/img52/9574/68krishnamkvsnapshot004.jpg&lt;/a&gt;\n","torrent":{"xt":"urn:btih:71db1adeec6df1b805e66e3784cf063463a200fb","amp;dn":"The+Little+Krishna+-+the+darling+of+vrindavan++DVD+Upscaled+Hind","amp;tr":["udp%3A%2F%2Ftracker.openbittorrent.com%3A80","udp%3A%2F%2Fopen.demonii.com%3A1337","udp%3A%2F%2Ftracker.coppersurfer.tk%3A6969","udp%3A%2F%2Fexodus.desync.com%3A6969"],"infoHash":"71db1adeec6df1b805e66e3784cf063463a200fb","infoHashBuffer":{"type":"Buffer","data":[113,219,26,222,236,109,241,184,5,230,110,55,132,207,6,52,99,162,0,251]},"announce":[],"urlList":[]}}